<?xml version="1.0" encoding="UTF-8" standalone="no"?>
<!DOCTYPE svg PUBLIC "-//W3C//DTD SVG 20010904//EN"
              "http://www.w3.org/TR/2001/REC-SVG-20010904/DTD/svg10.dtd">

<svg xmlns="http://www.w3.org/2000/svg"
     width="6.4in" height="6.4in"
     viewBox="0 0 1920 1920">
  <path id="Selection"
        fill="black" stroke="none" stroke-width="1"
        d="M 933.00,940.00
           C 935.48,948.45 935.96,957.34 937.29,966.00
             937.29,966.00 945.29,1018.00 945.29,1018.00
             945.29,1018.00 947.57,1031.00 947.57,1031.00
             947.57,1031.00 958.70,1103.00 958.70,1103.00
             958.70,1103.00 959.29,1110.00 959.29,1110.00
             959.29,1110.00 963.72,1137.00 963.72,1137.00
             963.72,1137.00 968.29,1169.00 968.29,1169.00
             968.29,1169.00 979.29,1241.00 979.29,1241.00
             979.29,1241.00 981.71,1254.00 981.71,1254.00
             981.71,1254.00 982.30,1261.00 982.30,1261.00
             982.30,1261.00 989.70,1306.00 989.70,1306.00
             989.70,1306.00 993.44,1334.00 993.44,1334.00
             993.44,1334.00 995.71,1346.00 995.71,1346.00
             995.71,1346.00 996.30,1353.00 996.30,1353.00
             996.30,1353.00 998.41,1364.00 998.41,1364.00
             998.41,1364.00 1003.71,1398.00 1003.71,1398.00
             1003.71,1398.00 1007.44,1426.00 1007.44,1426.00
             1007.44,1426.00 1012.56,1456.00 1012.56,1456.00
             1012.56,1456.00 1016.44,1484.00 1016.44,1484.00
             1016.44,1484.00 1024.15,1534.00 1024.15,1534.00
             1024.15,1534.00 1029.70,1568.00 1029.70,1568.00
             1029.70,1568.00 1035.56,1607.00 1035.56,1607.00
             1035.56,1607.00 1043.56,1659.00 1043.56,1659.00
             1043.56,1659.00 1045.60,1674.00 1045.60,1674.00
             1045.60,1674.00 1050.61,1707.00 1050.61,1707.00
             1051.39,1711.95 1051.39,1716.69 1044.96,1716.91
             1042.35,1717.00 1028.25,1713.61 1025.00,1712.71
             1010.70,1708.75 998.46,1704.69 985.00,1698.30
             916.07,1665.55 876.92,1606.80 854.16,1536.00
             846.77,1513.01 844.62,1496.38 840.72,1473.00
             840.72,1473.00 830.46,1415.00 830.46,1415.00
             830.46,1415.00 826.39,1389.00 826.39,1389.00
             826.39,1389.00 774.08,1084.00 774.08,1084.00
             774.08,1084.00 761.54,1009.00 761.54,1009.00
             761.54,1009.00 753.44,963.00 753.44,963.00
             753.44,963.00 747.89,930.04 747.89,930.04
             747.46,926.63 745.69,914.67 744.02,912.43
             742.35,910.20 739.51,910.07 737.00,909.55
             737.00,909.55 721.00,906.65 721.00,906.65
             721.00,906.65 708.00,904.49 708.00,904.49
             708.00,904.49 654.00,893.10 654.00,893.10
             654.00,893.10 567.00,870.41 567.00,870.41
             567.00,870.41 475.00,842.58 475.00,842.58
             462.37,838.88 438.45,832.08 426.00,830.93
             420.01,830.37 412.63,828.84 407.02,831.98
             400.77,835.48 398.27,845.27 398.23,852.01
             398.23,852.01 399.00,863.00 399.00,863.00
             399.00,863.00 399.00,873.00 399.00,873.00
             398.71,897.15 386.00,925.56 373.80,946.00
             362.51,964.91 351.28,980.14 333.91,994.13
             317.71,1007.17 300.63,1015.97 281.00,1022.51
             232.55,1038.66 178.59,1035.97 132.00,1014.86
             123.27,1010.90 115.17,1006.16 107.00,1001.20
             74.92,981.73 51.09,959.32 31.60,927.00
             19.43,906.83 10.49,884.26 6.57,861.00
             5.49,854.60 4.08,851.81 4.00,845.00
             4.00,845.00 3.04,826.00 3.04,826.00
             3.04,826.00 4.04,818.00 4.04,818.00
             4.04,818.00 4.04,809.00 4.04,809.00
             4.86,801.86 8.12,786.97 10.21,780.00
             13.23,769.91 17.90,760.40 22.59,751.00
             44.30,707.42 79.54,675.53 125.00,657.91
             149.06,648.59 172.21,644.75 197.82,643.28
             197.82,643.28 209.00,643.91 209.00,643.91
             229.60,645.19 245.36,647.64 265.00,654.50
             265.00,654.50 284.00,662.50 284.00,662.50
             284.00,662.50 407.00,715.70 407.00,715.70
             448.41,732.72 495.67,747.76 540.00,754.14
             540.00,754.14 580.00,759.00 580.00,759.00
             580.00,759.00 587.00,759.00 587.00,759.00
             587.00,759.00 602.00,760.00 602.00,760.00
             602.00,760.00 626.00,760.00 626.00,760.00
             626.00,760.00 638.00,759.04 638.00,759.04
             638.00,759.04 649.00,759.04 649.00,759.04
             649.00,759.04 715.00,751.29 715.00,751.29
             720.34,750.62 735.96,750.44 739.26,746.57
             741.74,743.67 741.85,735.77 742.04,732.00
             742.04,732.00 744.28,716.00 744.28,716.00
             744.28,716.00 748.29,683.00 748.29,683.00
             748.29,683.00 749.83,673.00 749.83,673.00
             749.83,673.00 751.17,654.00 751.17,654.00
             751.17,654.00 753.00,632.00 753.00,632.00
             753.00,632.00 753.00,593.00 753.00,593.00
             753.00,593.00 751.00,573.00 751.00,573.00
             751.00,573.00 751.00,564.00 751.00,564.00
             751.00,564.00 748.28,546.00 748.28,546.00
             742.24,498.72 727.52,452.12 709.69,408.00
             709.69,408.00 656.47,284.00 656.47,284.00
             656.47,284.00 648.53,265.00 648.53,265.00
             642.26,247.98 638.19,226.12 638.00,208.00
             638.00,208.00 637.49,199.58 637.49,199.58
             637.49,189.54 638.83,176.97 640.30,167.00
             640.30,167.00 642.34,158.00 642.34,158.00
             651.08,116.37 672.15,77.88 704.30,49.63
             716.73,38.70 730.42,30.19 745.00,22.52
             763.83,12.61 788.62,4.25 810.00,4.00
             810.00,4.00 821.96,3.05 821.96,3.05
             821.96,3.05 839.00,4.00 839.00,4.00
             844.91,4.07 859.91,7.25 866.00,8.85
             885.46,13.95 903.74,21.19 921.00,31.60
             953.20,51.03 975.80,75.03 995.20,107.00
             1000.16,115.17 1004.90,123.27 1008.86,132.00
             1030.95,180.74 1032.74,236.85 1014.43,287.00
             1007.58,305.79 997.87,322.87 984.71,338.00
             971.05,353.70 956.88,364.16 939.00,374.42
             918.85,385.98 891.59,398.72 868.00,399.00
             868.00,399.00 846.00,398.32 846.00,398.32
             833.50,397.39 822.29,404.43 823.32,418.00
             824.23,429.90 828.75,449.24 831.92,461.00
             831.92,461.00 844.80,504.00 844.80,504.00
             844.80,504.00 867.44,581.00 867.44,581.00
             867.44,581.00 890.10,672.00 890.10,672.00
             890.10,672.00 894.45,694.00 894.45,694.00
             894.45,694.00 898.64,712.00 898.64,712.00
             898.64,712.00 901.56,730.00 901.56,730.00
             902.48,735.81 902.18,748.31 908.11,751.15
             911.83,752.93 919.69,753.49 924.00,754.26
             924.00,754.26 955.00,759.61 955.00,759.61
             955.00,759.61 1005.00,768.28 1005.00,768.28
             1005.00,768.28 1016.00,770.56 1016.00,770.56
             1016.00,770.56 1070.00,779.46 1070.00,779.46
             1070.00,779.46 1178.00,798.54 1178.00,798.54
             1178.00,798.54 1186.00,799.46 1186.00,799.46
             1186.00,799.46 1374.00,832.54 1374.00,832.54
             1374.00,832.54 1399.00,836.32 1399.00,836.32
             1399.00,836.32 1472.00,849.39 1472.00,849.39
             1501.40,854.60 1510.34,855.00 1540.00,864.42
             1606.43,885.53 1669.46,929.76 1698.28,995.00
             1703.62,1007.08 1708.30,1019.19 1711.63,1032.00
             1712.65,1035.93 1714.93,1044.07 1714.61,1047.96
             1714.25,1052.27 1708.12,1058.03 1703.96,1058.77
             1700.38,1059.42 1675.92,1055.53 1671.00,1054.55
             1671.00,1054.55 1657.00,1052.56 1657.00,1052.56
             1657.00,1052.56 1620.00,1046.70 1620.00,1046.70
             1620.00,1046.70 1530.00,1032.72 1530.00,1032.72
             1530.00,1032.72 1502.00,1028.13 1502.00,1028.13
             1502.00,1028.13 1408.00,1013.44 1408.00,1013.44
             1408.00,1013.44 1381.00,1009.70 1381.00,1009.70
             1381.00,1009.70 1329.00,1001.57 1329.00,1001.57
             1329.00,1001.57 1317.00,999.30 1317.00,999.30
             1317.00,999.30 1310.00,998.71 1310.00,998.71
             1310.00,998.71 1284.00,994.28 1284.00,994.28
             1284.00,994.28 1219.00,984.56 1219.00,984.56
             1219.00,984.56 1129.00,970.57 1129.00,970.57
             1129.00,970.57 1090.00,964.56 1090.00,964.56
             1090.00,964.56 1078.00,962.29 1078.00,962.29
             1078.00,962.29 1071.00,961.70 1071.00,961.70
             1071.00,961.70 1059.00,959.43 1059.00,959.43
             1059.00,959.43 961.00,944.56 961.00,944.56
             961.00,944.56 933.00,940.00 933.00,940.00 Z
           M 1532.00,840.00
           C 1536.02,833.95 1544.41,826.39 1549.80,821.00
             1549.80,821.00 1582.60,788.20 1582.60,788.20
             1582.60,788.20 1643.40,727.40 1643.40,727.40
             1677.71,693.09 1705.29,664.82 1726.52,620.00
             1737.69,596.41 1746.31,572.51 1751.66,547.00
             1751.66,547.00 1754.54,535.00 1754.54,535.00
             1754.54,535.00 1755.43,526.00 1755.43,526.00
             1756.90,515.74 1758.98,505.39 1759.00,495.00
             1759.00,495.00 1759.00,463.00 1759.00,463.00
             1759.00,463.00 1755.29,433.00 1755.29,433.00
             1755.29,433.00 1754.54,425.00 1754.54,425.00
             1754.54,425.00 1751.66,413.00 1751.66,413.00
             1729.10,305.38 1650.26,216.77 1547.00,179.57
             1533.84,174.82 1520.65,171.20 1507.00,168.34
             1507.00,168.34 1495.00,165.46 1495.00,165.46
             1495.00,165.46 1486.00,164.57 1486.00,164.57
             1486.00,164.57 1457.00,161.00 1457.00,161.00
             1457.00,161.00 1425.00,161.00 1425.00,161.00
             1414.61,161.02 1404.26,163.10 1394.00,164.57
             1394.00,164.57 1385.00,165.46 1385.00,165.46
             1385.00,165.46 1373.00,168.34 1373.00,168.34
             1340.98,175.05 1310.52,186.89 1282.00,203.04
             1238.31,227.77 1209.84,259.36 1175.00,294.20
             1175.00,294.20 1049.40,419.80 1049.40,419.80
             1049.40,419.80 943.00,526.20 943.00,526.20
             943.00,526.20 918.20,551.00 918.20,551.00
             915.80,553.40 909.58,560.19 906.83,561.08
             904.31,562.22 898.24,561.04 895.00,561.08
             895.00,561.08 890.00,561.08 890.00,561.08
             881.64,560.84 881.88,555.45 879.88,548.00
             879.88,548.00 867.98,508.00 867.98,508.00
             866.70,503.18 861.99,492.66 864.71,488.44
             864.71,488.44 886.00,466.80 886.00,466.80
             886.00,466.80 930.00,422.80 930.00,422.80
             930.00,422.80 976.44,376.39 976.44,376.39
             976.44,376.39 994.00,360.00 994.00,360.00
             994.00,360.00 1009.20,343.61 1009.20,343.61
             1009.20,343.61 1068.40,284.40 1068.40,284.40
             1068.40,284.40 1137.20,215.60 1137.20,215.60
             1153.68,199.12 1169.77,182.03 1188.00,167.45
             1233.81,130.80 1287.80,103.63 1345.00,90.50
             1345.00,90.50 1356.00,87.66 1356.00,87.66
             1356.00,87.66 1367.00,85.79 1367.00,85.79
             1367.00,85.79 1379.00,83.29 1379.00,83.29
             1379.00,83.29 1388.00,82.72 1388.00,82.72
             1388.00,82.72 1424.00,79.00 1424.00,79.00
             1424.00,79.00 1456.00,79.00 1456.00,79.00
             1456.00,79.00 1493.00,82.72 1493.00,82.72
             1493.00,82.72 1501.00,83.29 1501.00,83.29
             1501.00,83.29 1515.00,86.20 1515.00,86.20
             1515.00,86.20 1524.00,87.51 1524.00,87.51
             1546.37,92.20 1568.71,99.31 1590.00,107.59
             1590.00,107.59 1621.00,121.90 1621.00,121.90
             1688.38,156.11 1745.95,208.90 1784.69,274.00
             1796.29,293.48 1805.65,313.95 1813.92,335.00
             1813.92,335.00 1824.22,364.00 1824.22,364.00
             1828.25,377.97 1834.98,405.93 1836.71,420.00
             1836.71,420.00 1837.28,428.00 1837.28,428.00
             1837.28,428.00 1841.00,465.00 1841.00,465.00
             1841.00,465.00 1841.00,497.00 1841.00,497.00
             1841.00,497.00 1837.28,532.00 1837.28,532.00
             1837.28,532.00 1836.56,541.00 1836.56,541.00
             1836.56,541.00 1833.46,556.00 1833.46,556.00
             1833.46,556.00 1832.54,563.00 1832.54,563.00
             1832.54,563.00 1825.75,589.00 1825.75,589.00
             1812.94,637.36 1789.57,683.01 1759.53,723.00
             1738.76,750.65 1712.08,775.12 1687.60,799.60
             1687.60,799.60 1634.80,852.40 1634.80,852.40
             1634.80,852.40 1621.20,866.00 1621.20,866.00
             1619.48,867.72 1616.13,871.50 1613.83,872.06
             1611.33,872.66 1608.20,870.84 1606.00,869.75
             1606.00,869.75 1590.00,861.76 1590.00,861.76
             1574.69,854.23 1548.48,843.72 1532.00,840.00 Z
           M 822.00,89.28
           C 789.98,93.91 765.24,103.64 745.78,131.00
             716.78,171.78 715.41,234.07 742.79,276.00
             747.95,283.90 752.43,288.43 759.00,295.00
             769.12,305.11 779.49,312.73 793.00,317.77
             802.36,321.26 815.00,323.57 825.00,323.96
             838.05,324.47 858.06,319.17 870.00,313.83
             910.23,295.81 938.48,255.45 939.00,211.00
             939.00,211.00 939.00,205.00 939.00,205.00
             938.73,147.28 882.24,83.68 822.00,89.28 Z
           M 196.00,729.28
           C 196.00,729.28 174.00,732.68 174.00,732.68
             147.22,738.81 121.72,753.84 106.36,777.00
             96.45,791.92 89.21,815.04 89.00,833.00
             88.34,891.19 147.25,944.33 204.00,945.00
             230.53,945.31 254.37,938.64 276.00,922.84
             317.01,892.89 337.91,834.50 312.62,788.00
             306.23,776.25 295.27,763.91 285.00,755.46
             274.23,746.60 259.36,739.09 246.00,735.14
             230.13,730.46 212.58,727.74 196.00,729.28 Z
           M 484.00,868.00
           C 484.00,868.00 504.00,873.58 504.00,873.58
             504.00,873.58 574.00,894.00 574.00,894.00
             570.38,899.93 549.34,919.86 543.00,926.20
             543.00,926.20 479.80,989.40 479.80,989.40
             479.80,989.40 327.00,1142.20 327.00,1142.20
             327.00,1142.20 280.60,1188.60 280.60,1188.60
             255.61,1213.59 238.51,1229.67 217.56,1259.00
             190.82,1296.43 170.40,1347.40 164.71,1393.00
             164.71,1393.00 161.00,1425.00 161.00,1425.00
             161.00,1425.00 161.00,1457.00 161.00,1457.00
             161.00,1457.00 164.57,1486.00 164.57,1486.00
             164.57,1486.00 165.46,1495.00 165.46,1495.00
             165.46,1495.00 168.11,1506.00 168.11,1506.00
             168.11,1506.00 169.51,1514.00 169.51,1514.00
             169.51,1514.00 172.25,1523.00 172.25,1523.00
             172.25,1523.00 180.06,1548.00 180.06,1548.00
             192.30,1582.02 210.25,1613.98 233.26,1642.00
             275.23,1693.08 333.16,1730.84 397.00,1747.75
             397.00,1747.75 406.00,1750.49 406.00,1750.49
             420.80,1753.80 451.33,1758.98 466.00,1759.00
             466.00,1759.00 496.00,1759.00 496.00,1759.00
             496.00,1759.00 526.00,1755.43 526.00,1755.43
             549.30,1752.05 571.99,1746.35 594.00,1737.83
             624.14,1726.16 652.66,1709.86 678.00,1689.79
             693.98,1677.13 710.98,1659.43 725.60,1644.80
             725.60,1644.80 786.55,1584.20 786.55,1584.20
             786.55,1584.20 833.00,1538.00 833.00,1538.00
             835.33,1551.06 848.90,1583.68 855.26,1596.00
             855.26,1596.00 868.00,1620.00 868.00,1620.00
             868.00,1620.00 831.60,1655.60 831.60,1655.60
             831.60,1655.60 778.80,1708.40 778.80,1708.40
             778.80,1708.40 749.00,1737.92 749.00,1737.92
             708.85,1775.03 660.24,1801.81 609.00,1820.06
             593.03,1825.75 556.73,1834.65 540.00,1836.71
             540.00,1836.71 532.00,1837.28 532.00,1837.28
             532.00,1837.28 496.00,1841.00 496.00,1841.00
             496.00,1841.00 464.00,1841.00 464.00,1841.00
             464.00,1841.00 427.00,1837.28 427.00,1837.28
             427.00,1837.28 418.00,1836.56 418.00,1836.56
             418.00,1836.56 405.00,1833.80 405.00,1833.80
             405.00,1833.80 364.00,1824.23 364.00,1824.23
             313.74,1809.09 263.19,1782.40 223.00,1748.56
             162.49,1697.62 122.58,1636.74 97.91,1562.00
             97.91,1562.00 87.51,1524.00 87.51,1524.00
             87.51,1524.00 86.20,1515.00 86.20,1515.00
             86.20,1515.00 83.29,1501.00 83.29,1501.00
             83.29,1501.00 81.85,1486.00 81.85,1486.00
             81.85,1486.00 79.00,1458.00 79.00,1458.00
             79.00,1458.00 79.00,1424.00 79.00,1424.00
             79.00,1424.00 82.72,1387.00 82.72,1387.00
             82.72,1387.00 83.44,1378.00 83.44,1378.00
             83.44,1378.00 86.20,1365.00 86.20,1365.00
             95.22,1318.21 110.87,1275.04 135.45,1234.00
             166.78,1181.68 199.14,1153.66 241.20,1111.60
             241.20,1111.60 298.00,1054.80 298.00,1054.80
             298.00,1054.80 327.61,1025.29 327.61,1025.29
             332.81,1020.68 344.15,1015.00 354.28,1005.54
             359.70,1000.48 369.39,990.96 373.78,985.25
             379.90,977.30 384.51,968.34 391.60,961.20
             391.60,961.20 452.40,900.40 452.40,900.40
             452.40,900.40 484.00,868.00 484.00,868.00 Z
           M 993.00,1195.00
           C 1022.04,1198.83 1021.36,1199.05 1051.00,1199.00
             1051.00,1199.00 1085.00,1195.29 1085.00,1195.29
             1130.89,1189.57 1177.69,1171.70 1216.00,1145.65
             1216.00,1145.65 1239.96,1128.21 1239.96,1128.21
             1258.97,1112.62 1289.37,1081.02 1308.00,1062.40
             1308.00,1062.40 1333.66,1037.00 1333.66,1037.00
             1336.19,1034.42 1343.05,1026.98 1346.09,1026.02
             1348.65,1025.21 1352.32,1026.34 1355.00,1026.72
             1355.00,1026.72 1374.00,1029.70 1374.00,1029.70
             1374.00,1029.70 1401.00,1033.44 1401.00,1033.44
             1401.00,1033.44 1413.00,1035.71 1413.00,1035.71
             1413.00,1035.71 1445.00,1041.00 1445.00,1041.00
             1441.49,1046.76 1425.35,1061.85 1419.60,1067.60
             1419.60,1067.60 1368.40,1118.80 1368.40,1118.80
             1341.33,1145.87 1313.20,1176.40 1282.99,1199.53
             1233.99,1237.02 1175.56,1262.61 1115.00,1273.61
             1115.00,1273.61 1099.00,1276.71 1099.00,1276.71
             1099.00,1276.71 1091.00,1277.28 1091.00,1277.28
             1091.00,1277.28 1064.00,1280.09 1064.00,1280.09
             1064.00,1280.09 1054.00,1281.00 1054.00,1281.00
             1054.00,1281.00 1019.00,1280.42 1019.00,1280.42
             1016.22,1280.06 1009.44,1280.27 1007.57,1278.83
             1005.98,1277.60 1005.73,1274.86 1005.42,1273.00
             1005.42,1273.00 1003.12,1258.00 1003.12,1258.00
             1003.12,1258.00 1001.56,1246.00 1001.56,1246.00
             1001.56,1246.00 999.29,1234.00 999.29,1234.00
             997.58,1221.02 996.37,1207.70 993.00,1195.00 Z" />
</svg>
